<svg xmlns="http://www.w3.org/2000/svg" viewBox="0 0 303.84 180.27"><defs><style>.cls-1,.cls-2,.cls-3,.cls-4,.cls-5{fill:none;stroke-miterlimit:10;stroke-width:5px;}.cls-1,.cls-2{stroke:#2589bd;}.cls-1,.cls-3,.cls-4,.cls-5{stroke-linecap:round;}.cls-3{stroke:#fb7119;}.cls-4{stroke:#ea4335;}.cls-5{stroke:#5fad56;}</style></defs><g id="Layer_2" data-name="Layer 2"><g id="Layer_1-2" data-name="Layer 1"><path class="cls-1" d="M34.12,163.13C27,164.65,20.85,165,15.86,164"/><path d="M164.85,116.12a11.58,11.58,0,0,1-4.66-.82,6.83,6.83,0,0,1-2.85-2.16,5.07,5.07,0,0,1-1-2.81.62.62,0,0,1,.63-.63h2.67a.9.9,0,0,1,.59.17,1.67,1.67,0,0,1,.34.4,3.05,3.05,0,0,0,.69,1.13,3.82,3.82,0,0,0,1.4.91,6,6,0,0,0,2.23.36,5.83,5.83,0,0,0,3.23-.72,2.24,2.24,0,0,0,1.06-2,1.79,1.79,0,0,0-.57-1.39,5.28,5.28,0,0,0-1.75-1,30.75,30.75,0,0,0-3.14-.92,17.43,17.43,0,0,1-3.76-1.3,5.73,5.73,0,0,1-2.28-1.94,5.33,5.33,0,0,1-.77-3,5.26,5.26,0,0,1,.95-3.09,6.34,6.34,0,0,1,2.7-2.13,10.23,10.23,0,0,1,4.18-.78,10.42,10.42,0,0,1,3.45.53,7.61,7.61,0,0,1,2.49,1.38,6.56,6.56,0,0,1,1.52,1.83,4.27,4.27,0,0,1,.55,1.9.66.66,0,0,1-.16.44.58.58,0,0,1-.47.19h-2.79a1.07,1.07,0,0,1-.48-.12.88.88,0,0,1-.39-.45,2.49,2.49,0,0,0-1.17-1.59A4.51,4.51,0,0,0,164.7,98a5,5,0,0,0-2.61.6,2.23,2.23,0,0,0-.49,3.26,4.05,4.05,0,0,0,1.59,1,29.7,29.7,0,0,0,2.89.9,21,21,0,0,1,4.17,1.32,5.46,5.46,0,0,1,2.37,1.91,5.25,5.25,0,0,1,.75,2.92,5.41,5.41,0,0,1-1.06,3.38,6.73,6.73,0,0,1-3,2.14A12.24,12.24,0,0,1,164.85,116.12Z"/><path d="M182.52,115.82a.72.72,0,0,1-.72-.72V98.51h-5.55a.72.72,0,0,1-.72-.72V95.57a.73.73,0,0,1,.21-.54.69.69,0,0,1,.51-.21h15.3a.72.72,0,0,1,.75.75v2.22a.69.69,0,0,1-.21.51.73.73,0,0,1-.54.21H186V115.1a.69.69,0,0,1-.21.51.73.73,0,0,1-.54.21Z"/><path d="M196.65,115.82a.72.72,0,0,1-.72-.72V95.57a.73.73,0,0,1,.21-.54.69.69,0,0,1,.51-.21h13.2a.72.72,0,0,1,.75.75v2a.69.69,0,0,1-.21.51.73.73,0,0,1-.54.21H200v5.31h9.21a.77.77,0,0,1,.54.2.67.67,0,0,1,.21.52v1.86a.69.69,0,0,1-.21.53.76.76,0,0,1-.54.19H200v5.49h10.11a.72.72,0,0,1,.75.75v2a.69.69,0,0,1-.21.51.73.73,0,0,1-.54.21Z"/><path d="M215.94,115.82a.73.73,0,0,1-.54-.21.69.69,0,0,1-.21-.51V95.57a.72.72,0,0,1,.75-.75h2.37a.82.82,0,0,1,.63.23,1.74,1.74,0,0,1,.27.34l5.79,10.8,5.85-10.8a1.74,1.74,0,0,1,.27-.34.82.82,0,0,1,.63-.23h2.34a.72.72,0,0,1,.75.75V115.1a.69.69,0,0,1-.21.51.73.73,0,0,1-.54.21h-2.52a.67.67,0,0,1-.52-.21.73.73,0,0,1-.2-.51v-13l-4.2,8a1.61,1.61,0,0,1-.39.47,1,1,0,0,1-.63.19H224.4a.94.94,0,0,1-.64-.19,1.74,1.74,0,0,1-.38-.47l-4.2-8v13a.72.72,0,0,1-.72.72Z"/><path d="M246.09,115.82a5.16,5.16,0,0,1-2.73-.64,3.73,3.73,0,0,1-1.53-1.83,7.48,7.48,0,0,1-.48-2.81v-7.92H239a.66.66,0,0,1-.49-.19.69.69,0,0,1-.2-.5v-1a.68.68,0,0,1,.69-.69h2.34v-5a.68.68,0,0,1,.69-.69h1.41a.69.69,0,0,1,.5.2.66.66,0,0,1,.19.49v5h3.72a.69.69,0,0,1,.5.2.66.66,0,0,1,.19.49v1a.65.65,0,0,1-.69.69h-3.72v7.71a4.35,4.35,0,0,0,.48,2.22,1.82,1.82,0,0,0,1.71.81h1.83a.69.69,0,0,1,.5.2.66.66,0,0,1,.19.49v1.08a.65.65,0,0,1-.69.69Z"/><path d="M253,115.82a.66.66,0,0,1-.49-.19.69.69,0,0,1-.2-.5V100.94a.73.73,0,0,1,.2-.51.64.64,0,0,1,.49-.21h1.38a.72.72,0,0,1,.72.72v1.32a3.81,3.81,0,0,1,1.65-1.53,5.72,5.72,0,0,1,2.52-.51h1.2a.63.63,0,0,1,.48.2.69.69,0,0,1,.18.49v1.23a.62.62,0,0,1-.66.66h-1.8a3.42,3.42,0,0,0-2.55,1,3.49,3.49,0,0,0-.93,2.56v8.82a.66.66,0,0,1-.21.5.72.72,0,0,1-.51.19Z"/><path d="M264.78,97.31a.66.66,0,0,1-.49-.19.69.69,0,0,1-.2-.5V95a.68.68,0,0,1,.69-.69h1.89a.69.69,0,0,1,.5.2.66.66,0,0,1,.19.49v1.62a.65.65,0,0,1-.69.69Zm.24,18.51a.66.66,0,0,1-.49-.19.69.69,0,0,1-.2-.5V100.91a.68.68,0,0,1,.69-.69h1.44a.63.63,0,0,1,.48.2.69.69,0,0,1,.18.49v14.22a.71.71,0,0,1-.18.5.62.62,0,0,1-.48.19Z"/><path d="M279.9,116.12a6.29,6.29,0,0,1-3-.64,5.77,5.77,0,0,1-1.92-1.61v1.26a.65.65,0,0,1-.69.69h-1.38a.66.66,0,0,1-.49-.19.69.69,0,0,1-.2-.5V95.21a.68.68,0,0,1,.69-.69h1.44a.66.66,0,0,1,.51.2.69.69,0,0,1,.18.49v6.9a5.95,5.95,0,0,1,4.86-2.19,6.44,6.44,0,0,1,2.87.59,5.35,5.35,0,0,1,2,1.6,7.36,7.36,0,0,1,1.15,2.31,10,10,0,0,1,.42,2.7q0,.48,0,.9t0,.9a10.12,10.12,0,0,1-.42,2.73,7.2,7.2,0,0,1-1.15,2.3,5.43,5.43,0,0,1-2,1.59A6.44,6.44,0,0,1,279.9,116.12Zm-.63-2.43a4,4,0,0,0,2.45-.67,3.75,3.75,0,0,0,1.27-1.77,8.17,8.17,0,0,0,.45-2.36q0-.87,0-1.74a8.1,8.1,0,0,0-.45-2.35,3.75,3.75,0,0,0-1.27-1.77,4.61,4.61,0,0,0-4.79,0,4.12,4.12,0,0,0-1.39,1.68,5.33,5.33,0,0,0-.5,2.07c0,.32,0,.71,0,1.16s0,.83,0,1.15a6.71,6.71,0,0,0,.5,2.18,4.09,4.09,0,0,0,1.35,1.75A3.84,3.84,0,0,0,279.27,113.69Z"/><path d="M296.85,116.12a6.5,6.5,0,0,1-4.92-1.9,7.86,7.86,0,0,1-2-5.21c0-.26,0-.59,0-1s0-.75,0-1a8.76,8.76,0,0,1,1-3.73,6.21,6.21,0,0,1,2.39-2.48,7,7,0,0,1,3.55-.87,7.14,7.14,0,0,1,3.83,1,6.11,6.11,0,0,1,2.35,2.73,9.86,9.86,0,0,1,.81,4.14v.51a.66.66,0,0,1-.19.51.71.71,0,0,1-.5.18H292.77v.27a6.3,6.3,0,0,0,.54,2.3,4.26,4.26,0,0,0,1.38,1.72,3.55,3.55,0,0,0,2.16.66,4.32,4.32,0,0,0,1.8-.33,4.61,4.61,0,0,0,1.17-.73,4.47,4.47,0,0,0,.6-.62,1.49,1.49,0,0,1,.42-.46,1.12,1.12,0,0,1,.48-.08h1.44a.76.76,0,0,1,.5.17.49.49,0,0,1,.16.46,2.34,2.34,0,0,1-.48,1.1,5.77,5.77,0,0,1-1.29,1.27,7.23,7.23,0,0,1-2,1A8.63,8.63,0,0,1,296.85,116.12Zm-4.08-9.24H301v-.09a5.56,5.56,0,0,0-.49-2.4,4,4,0,0,0-1.43-1.66,3.93,3.93,0,0,0-2.22-.62,3.85,3.85,0,0,0-2.2.62,3.92,3.92,0,0,0-1.4,1.66,5.71,5.71,0,0,0-.48,2.4Z"/><path d="M156.38,144.82a.56.56,0,0,1-.4-.17.55.55,0,0,1-.18-.41,2,2,0,0,1,0-.32L163,125.16a1.22,1.22,0,0,1,.32-.46.91.91,0,0,1,.61-.18h2a.91.91,0,0,1,.6.18,1.14,1.14,0,0,1,.33.46L174,143.92a1.39,1.39,0,0,1,0,.32.54.54,0,0,1-.17.41.58.58,0,0,1-.41.17H172a.66.66,0,0,1-.5-.17,1.08,1.08,0,0,1-.22-.32l-1.6-4.12h-9.51l-1.59,4.12a.67.67,0,0,1-.21.32.72.72,0,0,1-.52.17Zm4.64-7.1h7.83l-3.91-10.3Z"/><path d="M183.58,144.82a.65.65,0,0,1-.66-.66v-12.1h-2.47a.65.65,0,0,1-.48-.19.64.64,0,0,1-.18-.47v-1a.68.68,0,0,1,.18-.48.69.69,0,0,1,.48-.19h2.47v-1.45a6.33,6.33,0,0,1,.49-2.59A3.63,3.63,0,0,1,185,124a6.07,6.07,0,0,1,2.92-.61h1.74a.63.63,0,0,1,.46.19.67.67,0,0,1,.17.48v1a.63.63,0,0,1-.17.47.59.59,0,0,1-.46.19H188a2.12,2.12,0,0,0-1.85.71,3.59,3.59,0,0,0-.5,2v1.3h3.75a.63.63,0,0,1,.46.19.67.67,0,0,1,.17.48v1a.63.63,0,0,1-.17.47.59.59,0,0,1-.46.19h-3.75v12.1a.64.64,0,0,1-.18.47.65.65,0,0,1-.48.19Z"/><path d="M198.46,144.82a.65.65,0,0,1-.67-.66V130.44A.71.71,0,0,1,198,130a.63.63,0,0,1,.48-.21h1.34a.67.67,0,0,1,.49.21.68.68,0,0,1,.2.49v1.27a3.67,3.67,0,0,1,1.6-1.47,5.48,5.48,0,0,1,2.43-.5h1.16a.63.63,0,0,1,.47.19.72.72,0,0,1,.17.48v1.19a.64.64,0,0,1-.17.46.63.63,0,0,1-.47.18h-1.74a3.29,3.29,0,0,0-2.46.91,3.39,3.39,0,0,0-.9,2.48v8.53a.62.62,0,0,1-.2.47.69.69,0,0,1-.5.19Z"/><path d="M214.47,126.93a.65.65,0,0,1-.48-.19.62.62,0,0,1-.19-.48V124.7a.62.62,0,0,1,.19-.48.65.65,0,0,1,.48-.19h1.83a.61.61,0,0,1,.47.19.62.62,0,0,1,.19.48v1.56a.62.62,0,0,1-.19.48.61.61,0,0,1-.47.19Zm.23,17.89a.65.65,0,0,1-.67-.66V130.41a.65.65,0,0,1,.67-.67h1.39a.63.63,0,0,1,.47.19.72.72,0,0,1,.17.48v13.75a.68.68,0,0,1-.17.47.6.6,0,0,1-.47.19Z"/><path d="M232.36,145.11a7.47,7.47,0,0,1-3.55-.79,5.63,5.63,0,0,1-2.31-2.3,7.85,7.85,0,0,1-.87-3.58c0-.29,0-.67,0-1.16s0-.87,0-1.16a7.92,7.92,0,0,1,.87-3.58,5.6,5.6,0,0,1,2.31-2.29,7.47,7.47,0,0,1,3.55-.8,8.07,8.07,0,0,1,2.89.47,6,6,0,0,1,2,1.19,4.88,4.88,0,0,1,1.18,1.56,4.19,4.19,0,0,1,.42,1.6.5.5,0,0,1-.18.46.7.7,0,0,1-.49.17h-1.39a.6.6,0,0,1-.43-.13,1.12,1.12,0,0,1-.29-.45,3.92,3.92,0,0,0-1.43-2,4.08,4.08,0,0,0-2.23-.58,3.85,3.85,0,0,0-2.83,1.08,5,5,0,0,0-1.17,3.45c0,.69,0,1.37,0,2a5,5,0,0,0,1.17,3.46,3.88,3.88,0,0,0,2.83,1.06,4,4,0,0,0,2.23-.58,3.83,3.83,0,0,0,1.43-2,1.29,1.29,0,0,1,.29-.45.6.6,0,0,1,.43-.13h1.39a.71.71,0,0,1,.49.18.49.49,0,0,1,.18.46,4.5,4.5,0,0,1-.26,1.25,5.06,5.06,0,0,1-.74,1.29,5.63,5.63,0,0,1-1.26,1.16,6.35,6.35,0,0,1-1.82.81A8.73,8.73,0,0,1,232.36,145.11Z"/><path d="M251.7,145.11a5.87,5.87,0,0,1-2.63-.58,5.11,5.11,0,0,1-1.92-1.56,3.7,3.7,0,0,1-.72-2.24,3.77,3.77,0,0,1,1.62-3.19,9.31,9.31,0,0,1,4.23-1.56l4.33-.61v-.84a2.92,2.92,0,0,0-.8-2.18,3.62,3.62,0,0,0-2.6-.78,3.75,3.75,0,0,0-2.1.52,2.84,2.84,0,0,0-1.12,1.34.61.61,0,0,1-.61.43h-1.3a.59.59,0,0,1-.48-.19.64.64,0,0,1-.16-.45,2.46,2.46,0,0,1,.33-1.07,4.49,4.49,0,0,1,1-1.25,5.92,5.92,0,0,1,1.78-1,7.37,7.37,0,0,1,2.65-.42,8.32,8.32,0,0,1,2.93.45,4.5,4.5,0,0,1,2.86,2.92,6.39,6.39,0,0,1,.3,1.94v9.4a.61.61,0,0,1-.19.47.62.62,0,0,1-.48.19h-1.33a.61.61,0,0,1-.49-.19.64.64,0,0,1-.18-.47v-1.25a5.23,5.23,0,0,1-2.61,1.87A7.23,7.23,0,0,1,251.7,145.11Zm.61-2.17a4.67,4.67,0,0,0,2.18-.51,3.59,3.59,0,0,0,1.55-1.58,5.71,5.71,0,0,0,.57-2.7v-.81l-3.37.49a7.91,7.91,0,0,0-3.1,1,2,2,0,0,0-1,1.73,2,2,0,0,0,.47,1.35,3,3,0,0,0,1.22.8A4.62,4.62,0,0,0,252.31,142.94Z"/><path class="cls-1" d="M84.22,27.64A51,51,0,0,1,94.7,19.05"/><path class="cls-1" d="M105.82,15.76a12.89,12.89,0,0,1,3.5.65c6.26,2.14,10.38,9.1,12.32,19.27,1.71,9.06,1.69,20.65-.08,33.68"/><path class="cls-1" d="M98.5,139.25c2.28-4.2,4.49-8.66,6.58-13.35"/><path class="cls-1" d="M44.42,112.46C40.56,131.26,40,148,42.75,159.85h0c2.08,9.08,6.06,15.24,11.89,17.23a13.2,13.2,0,0,0,4.48.68c8.61-.18,18.86-8.21,28.67-21.51q2.07-2.81,4.11-5.91v0"/><path class="cls-1" d="M161.13,41.33a13.77,13.77,0,0,0-1.95-3.42c-6-7.64-19.87-7.93-37.54-2.23-3.84,1.24-7.86,2.76-12,4.56a186.81,186.81,0,0,0-17,8.43A250.72,250.72,0,0,0,60.53,70.16c-3.15,2.47-6.21,5-9.15,7.5C46.54,81.79,42,86,37.78,90.18,26.27,101.63,17.1,113.11,11,123.52,2.35,138.3-.13,150.91,5.57,158.18a5.85,5.85,0,0,0,.45.54"/><path class="cls-1" d="M143.61,87.31c9.09-11.61,15.2-22.6,17.56-31.72"/><path class="cls-1" d="M50.33,14.44c12.9,6.78,27.76,18.67,42.31,34.23,5,5.39,10,11.21,14.88,17.42A247.75,247.75,0,0,1,131,101.82a158,158,0,0,1,11,25.31c2.92,9,4.28,17.08,3.89,23.59"/><path class="cls-1" d="M142.52,161.8a13.3,13.3,0,0,1-2.76,2.94c-7.76,6.08-21.62,2.84-37.73-7.3"/><path class="cls-1" d="M37.62,9.25c-7.51-2-13.78-1.54-18.13,1.86-13,10.2-4.7,43.4,18.29,79.07,4.18,6.48,8.84,13,14,19.58a244.94,244.94,0,0,0,29.84,32.06"/><circle class="cls-2" cx="10.43" cy="161.87" r="5.43"/><circle class="cls-2" cx="162.36" cy="48.47" r="7.24"/><circle class="cls-2" cx="44.83" cy="9.74" r="7.24"/><circle class="cls-2" cx="94.68" cy="144.49" r="6.48"/><circle class="cls-2" cx="145.21" cy="156.57" r="5.88"/><circle class="cls-2" cx="99.99" cy="16.46" r="5.88"/><path class="cls-3" d="M88,84.24a11.26,11.26,0,1,1-7.9,21.09"/><path class="cls-3" d="M88,84.24A11.31,11.31,0,0,1,81.4,69.75"/><path class="cls-3" d="M65.57,112a11.31,11.31,0,0,1,14.5-6.6"/><path class="cls-4" d="M86.63,119.88A11.31,11.31,0,0,0,80,105.39"/><path class="cls-4" d="M88,84.23a11.31,11.31,0,0,0,14.5-6.6"/><path class="cls-4" d="M88,84.23a11.26,11.26,0,0,0-7.9,21.09"/><line class="cls-5" x1="80.78" y1="93.56" x2="87.33" y2="96.02"/><line class="cls-5" x1="88.66" y1="72.47" x2="95.22" y2="74.92"/><line class="cls-5" x1="72.83" y1="114.71" x2="79.39" y2="117.17"/></g></g></svg>